HIERARCHY
ROOT hip
{
	OFFSET 0.000000 0.000000 0.000000 
	CHANNELS 6 Xposition Yposition Zposition Xrotation Zrotation Yrotation
	JOINT abdomen
	{
		OFFSET 0.000000 3.402643 0.000000 
		CHANNELS 3 Xrotation Zrotation Yrotation
		JOINT chest
		{
			OFFSET 0.000000 8.438565 -0.680529 
			CHANNELS 3 Xrotation Zrotation Yrotation
			JOINT neck
			{
				OFFSET 0.000000 10.207942 -0.272212 
				CHANNELS 3 Xrotation Zrotation Yrotation
				JOINT head
				{
					OFFSET 0.000000 3.130431 0.000000 
					CHANNELS 3 Xrotation Zrotation Yrotation
					End Site
					{
						OFFSET 0.000000 3.130435 0.000000 
					}
				}
			}
			JOINT lCollar
			{
				OFFSET 3.470700 6.669187 -0.816635 
				CHANNELS 3 Yrotation Zrotation Xrotation
				JOINT lShldr
				{
					OFFSET 3.198488 0.000000 0.000000 
					CHANNELS 3 Zrotation Yrotation Xrotation
					JOINT lForeArm
					{
						OFFSET 10.139888 0.000000 0.000000 
						CHANNELS 3 Yrotation Zrotation Xrotation
						JOINT lHand
						{
							OFFSET 8.370511 0.000000 0.000000 
							CHANNELS 3 Zrotation Yrotation Xrotation
							End Site
							{
								OFFSET 4.083176 0.000000 0.000000 
							}
						}
					}
				}
			}
			JOINT rCollar
			{
				OFFSET -3.470700 6.669187 -0.816635 
				CHANNELS 3 Yrotation Zrotation Xrotation
				JOINT rShldr
				{
					OFFSET -3.198488 0.000000 0.000000 
					CHANNELS 3 Zrotation Yrotation Xrotation
					JOINT rForeArm
					{
						OFFSET -10.139888 0.000000 0.000000 
						CHANNELS 3 Yrotation Zrotation Xrotation
						JOINT rHand
						{
							OFFSET -8.370511 0.000000 0.000000 
							CHANNELS 3 Zrotation Yrotation Xrotation
							End Site
							{
								OFFSET -4.083176 0.000000 0.000000 
							}
						}
					}
				}
			}
		}
	}
	JOINT lThigh
	{
		OFFSET 5.308129 -1.633274 1.361059 
		CHANNELS 3 Xrotation Zrotation Yrotation
		JOINT lShin
		{
			OFFSET -2.041588 -20.007561 0.000000 
			CHANNELS 3 Xrotation Zrotation Yrotation
			JOINT lFoot
			{
				OFFSET 0.000000 -19.190928 -1.224953 
				CHANNELS 3 Xrotation Yrotation Zrotation
				End Site
				{
					OFFSET 0.000000 -2.449906 4.627600 
				}
			}
		}
	}
	JOINT rThigh
	{
		OFFSET -5.308129 -1.633274 1.361059 
		CHANNELS 3 Xrotation Zrotation Yrotation
		JOINT rShin
		{
			OFFSET 2.041588 -20.007561 0.000000 
			CHANNELS 3 Xrotation Zrotation Yrotation
			JOINT rFoot
			{
				OFFSET 0.000000 -19.190928 -1.224953 
				CHANNELS 3 Xrotation Yrotation Zrotation
				End Site
				{
					OFFSET 0.000000 -2.449906 4.627600 
				}
			}
		}
	}
}
MOTION
Frames: 16
Frame Time: 0.016667
-1.853569 33.950409 -0.004129 7.380360 -7.642000 -23.770399 -22.300501 4.201370 2.782900 14.403600 0.883553 1.906720 10.200400 1.323310 0.992153 9.447540 5.180350 0.815769 2.000000 -2.000000 0.000000 -79.405296 -11.783900 -170.410995 92.559196 -0.208309 0.156146 0.050367 -0.042503 -152.283005 -2.000000 2.000000 0.000000 70.391701 -13.366800 -168.647003 -102.217003 0.187983 0.114320 -0.055567 -0.009576 -129.998001 -56.138847 23.768389 8.202258 75.345375 0.021192 4.451832 -22.663654 2.348150 0.794881 4.831547 -1.305746 -5.163683 44.064869 -3.221572 -2.806504 -36.506203 -24.551262 -18.899588 
-1.859400 33.948051 0.000732 7.389710 -7.612780 -23.767900 -22.300501 4.201370 2.782900 14.413300 0.893279 1.905820 10.053700 1.210070 0.959702 9.388190 5.132350 0.805927 2.000000 -2.000000 0.000000 -79.375999 -11.783900 -170.401993 92.588501 -0.208234 0.156142 0.050439 -0.042767 -152.380997 -2.000000 2.000000 0.000000 70.401398 -13.347200 -168.686005 -102.197998 0.188026 0.114329 -0.055535 -0.009304 -130.095993 -56.121769 23.725296 8.198276 75.344994 0.024681 4.444821 -22.701332 2.367315 0.796633 4.881463 -1.312394 -5.171348 44.026730 -3.210808 -2.812536 -36.533939 -24.551983 -18.898693 
-1.865590 33.945469 0.004447 7.389040 -7.574040 -23.753201 -22.319500 4.170460 2.783910 14.393800 0.883537 1.896800 10.192600 1.379050 0.972548 9.457550 5.199690 0.808728 2.000000 -2.000000 0.000000 -79.356499 -11.822900 -170.382004 92.559196 -0.208309 0.156146 0.050447 -0.042793 -152.389999 -2.000000 2.000000 0.000000 70.459999 -13.356900 -168.686005 -102.167999 0.188089 0.114343 -0.055538 -0.009331 -130.085999 -56.107906 23.672462 8.195167 75.345329 0.019341 4.451204 -22.698366 2.399383 0.805531 4.857973 -1.349005 -5.186589 44.035877 -3.215281 -2.804413 -36.505486 -24.602234 -18.941734 
-1.873296 33.945019 0.013013 7.388540 -7.544990 -23.759199 -22.309700 4.154760 2.769780 14.423100 0.903005 1.885400 10.172600 1.408870 0.985829 9.447850 5.209510 0.818529 2.000000 -2.000000 0.000000 -79.336998 -11.871800 -170.410995 92.549400 -0.208334 0.156147 0.050454 -0.042819 -152.399994 -2.000000 2.000000 0.000000 70.459999 -13.347200 -168.686005 -102.158997 0.188110 0.114347 -0.055548 -0.009413 -130.057007 -56.101509 23.657438 8.204903 75.335991 0.013671 4.456550 -22.705118 2.431979 0.814988 4.870402 -1.370348 -5.178296 44.036358 -3.213648 -2.813523 -36.503532 -24.614790 -18.924622 
-1.880385 33.944454 0.023011 7.398390 -7.544820 -23.750700 -22.290600 4.160750 2.757870 14.462100 0.922492 1.883940 10.144000 1.418220 0.975383 9.438150 5.219340 0.808795 2.000000 -2.000000 0.000000 -79.327202 -11.930400 -170.410995 92.549400 -0.208334 0.156147 0.050410 -0.042661 -152.341995 -2.000000 2.000000 0.000000 70.459999 -13.298300 -168.714996 -102.099998 0.188237 0.114375 -0.055571 -0.009603 -129.988007 -56.106018 23.673269 8.213077 75.365219 0.017001 4.458038 -22.733725 2.439959 0.820385 4.820685 -1.362797 -5.170499 44.083702 -3.227805 -2.799034 -36.562771 -24.579697 -18.931698 
-1.886922 33.942997 0.030429 7.437960 -7.553840 -23.757099 -22.260799 4.155700 2.772080 14.530500 0.893474 1.888120 10.125100 1.427430 0.965743 9.438150 5.219340 0.808795 2.000000 -2.000000 0.000000 -79.278503 -12.028000 -170.391006 92.549400 -0.208334 0.156147 0.050396 -0.042609 -152.322006 -2.000000 2.000000 0.000000 70.508797 -13.220000 -168.774002 -102.041000 0.188364 0.114402 -0.055574 -0.009630 -129.977997 -56.157017 23.694138 8.167347 75.394485 0.008168 4.449261 -22.713882 2.441782 0.821009 4.817976 -1.311129 -5.135608 44.055248 -3.225485 -2.817980 -36.607906 -24.474926 -18.881790 
-1.893203 33.941311 0.042709 7.477350 -7.553160 -23.762199 -22.240801 4.150470 2.785830 14.598900 0.854734 1.903000 10.106600 1.397500 0.939519 9.437940 5.199890 0.797192 2.000000 -2.000000 0.000000 -79.259003 -12.145100 -170.371994 92.500603 -0.208458 0.156152 0.050410 -0.042661 -152.341995 -2.000000 2.000000 0.000000 70.518600 -13.229700 -168.802994 -102.060997 0.188322 0.114393 -0.055561 -0.009521 -130.016998 -56.187748 23.702990 8.157217 75.394493 0.010428 4.450705 -22.723206 2.450313 0.815332 4.786243 -1.315770 -5.167513 44.053394 -3.244062 -2.805785 -36.622623 -24.471619 -18.886112 
-1.899774 33.940075 0.050416 7.506730 -7.542980 -23.764799 -22.241501 4.165120 2.769320 14.598900 0.893586 1.898950 10.114400 1.341750 0.959216 9.437830 5.190170 0.806040 2.000000 -2.000000 0.000000 -79.297997 -12.164600 -170.362000 92.481003 -0.208508 0.156155 0.050432 -0.042740 -152.371002 -2.000000 2.000000 0.000000 70.440498 -13.259100 -168.774002 -102.099998 0.188237 0.114375 -0.055535 -0.009304 -130.095993 -56.223797 23.700878 8.123021 75.404991 -0.002561 4.459949 -22.728436 2.496279 0.833266 4.834370 -1.296945 -5.152871 43.976772 -3.221800 -2.807585 -36.673347 -24.427822 -18.925407 
-1.906492 33.938164 0.055567 7.516410 -7.533130 -23.784401 -22.242300 4.192240 2.758260 14.598800 0.922724 1.895910 10.073800 1.373250 0.990306 9.418430 5.209820 0.815869 2.000000 -2.000000 0.000000 -79.317596 -12.145200 -170.401001 92.471298 -0.208533 0.156156 0.050439 -0.042767 -152.380997 -2.000000 2.000000 0.000000 70.362396 -13.278800 -168.714996 -102.110001 0.188216 0.114370 -0.055515 -0.009141 -130.154007 -56.225166 23.701937 8.103927 75.414749 -0.007341 4.455633 -22.728731 2.493613 0.831566 4.791173 -1.300336 -5.145753 44.046967 -3.206162 -2.820073 -36.627792 -24.521679 -18.950619 
-1.912087 33.937828 0.060983 7.496210 -7.504420 -23.797501 -22.222401 4.171110 2.757410 14.618400 0.913044 1.887470 10.023300 1.347190 1.010340 9.388910 5.200410 0.822064 2.000000 -2.000000 0.000000 -79.298103 -12.155100 -170.440002 92.471298 -0.208533 0.156156 0.050403 -0.042635 -152.332001 -2.000000 2.000000 0.000000 70.333000 -13.249500 -168.675995 -102.110001 0.188216 0.114370 -0.055509 -0.009087 -130.173996 -56.201321 23.673647 8.118533 75.423744 0.019003 4.455877 -22.732393 2.548912 0.866264 4.755469 -1.340060 -5.152016 44.105812 -3.203975 -2.818686 -36.625454 -24.568228 -18.965778 
-1.916288 33.936367 0.065845 7.505890 -7.494570 -23.836599 -22.233101 4.194620 2.736750 14.589100 0.932420 1.884970 9.951440 1.304250 1.054630 9.349690 5.200830 0.847820 2.000000 -2.000000 0.000000 -79.307800 -12.077100 -170.518005 92.500603 -0.208458 0.156152 0.050309 -0.042292 -152.205002 -2.000000 2.000000 0.000000 70.245102 -13.230200 -168.587997 -102.080002 0.188279 0.114384 -0.055512 -0.009114 -130.164001 -56.185139 23.665497 8.088907 75.433487 0.012989 4.450845 -22.724506 2.625663 0.891557 4.714991 -1.365637 -5.176826 44.164703 -3.201132 -2.816840 -36.666851 -24.568939 -19.003214 
-1.919995 33.936142 0.070694 7.495710 -7.475370 -23.891399 -22.212999 4.192810 2.759660 14.579300 0.922691 1.895590 9.853230 1.267840 1.049500 9.310370 5.191510 0.843382 2.000000 -2.000000 0.000000 -79.288300 -12.028500 -170.587006 92.539597 -0.208359 0.156148 0.050244 -0.042055 -152.117004 -2.000000 2.000000 0.000000 70.215797 -13.200900 -168.587997 -102.089996 0.188258 0.114379 -0.055522 -0.009195 -130.134995 -56.159359 23.655903 8.051901 75.443649 0.004581 4.452892 -22.724325 2.718117 0.927045 4.689394 -1.401942 -5.162632 44.155003 -3.199634 -2.816314 -36.582413 -24.664904 -19.020636 
-1.920624 33.930752 0.075265 7.525590 -7.494230 -23.946600 -22.184700 4.213660 2.731740 14.598800 0.922724 1.876380 9.789390 1.197920 1.119000 9.290660 5.181990 0.870018 2.000000 -2.000000 0.000000 -79.288399 -11.999600 -170.772003 92.568901 -0.208284 0.156145 0.050287 -0.042213 -152.175995 -2.000000 2.000000 0.000000 70.127800 -13.152300 -168.509995 -102.139000 0.188152 0.114356 -0.055545 -0.009386 -130.065994 -56.194946 23.641270 7.955254 75.483047 0.006782 4.461882 -22.723173 2.815564 0.965661 4.661852 -1.389215 -5.133236 44.174458 -3.201743 -2.816905 -36.640182 -24.605175 -19.022854 
-1.923815 33.927269 0.080969 7.565150 -7.503240 -24.040800 -22.154699 4.227940 2.769730 14.628200 0.883920 1.900410 9.701440 1.141370 1.102140 9.261040 5.162850 0.865595 2.000000 -2.000000 0.000000 -79.268898 -11.970500 -170.869995 92.598198 -0.208209 0.156141 0.050367 -0.042503 -152.283005 -2.000000 2.000000 0.000000 70.157097 -13.132600 -168.578003 -102.188004 0.188047 0.114334 -0.055545 -0.009386 -130.065994 -56.221352 23.679670 7.874102 75.531784 0.004042 4.457461 -22.717016 2.952411 1.017849 4.625460 -1.399372 -5.116638 44.155190 -3.196402 -2.814990 -36.537357 -24.730627 -19.045919 
-1.929252 33.929626 0.084685 7.603870 -7.463840 -24.109200 -22.125601 4.237560 2.767480 14.628200 0.913060 1.897390 9.649690 1.087730 1.137110 9.251230 5.162950 0.874481 2.000000 -2.000000 0.000000 -79.298203 -11.961200 -171.046005 92.568901 -0.208284 0.156145 0.050403 -0.042635 -152.332001 -2.000000 2.000000 0.000000 70.196098 -13.005500 -168.636002 -102.128998 0.188174 0.114361 -0.055522 -0.009195 -130.134995 -56.240780 23.662785 7.841530 75.522423 -0.012469 4.454576 -22.697191 3.031342 1.055485 4.524794 -1.434873 -5.086830 44.204269 -3.207510 -2.838128 -36.527641 -24.758545 -19.030313 
-1.936846 33.936817 0.097531 7.632060 -7.385900 -24.219900 -22.146000 4.264310 2.755520 14.598700 1.000430 1.897570 9.627330 1.072210 1.180770 9.221920 5.172970 0.892258 2.000000 -2.000000 0.000000 -79.366600 -11.795600 -171.242004 92.529900 -0.208384 0.156149 0.050425 -0.042714 -152.360992 -2.000000 2.000000 0.000000 70.215698 -13.025000 -168.645996 -102.089996 0.188258 0.114379 -0.055515 -0.009141 -130.154007 -56.214504 23.662260 7.895274 75.492783 -0.002728 4.454280 -22.671413 3.158671 1.100460 4.438843 -1.529093 -5.042448 44.253002 -3.204379 -2.826543 -36.459358 -24.788778 -19.019670 
